# xmcd
#
# Track frame offsets:
#	150
#	14803
#	31635
#	52765
#	65771
#	82016
#	99350
#	114536
#	131502
#	150424
#	165077
#	181909
#	203039
#	216045
#	232290
#	249624
#	264810
#	281776
#
# Disc length: 4009 seconds
#
# Revision: 0
# Processed by: cddbd v1.5.2PL0 Copyright (c) Steve Scherf et al.
# Submitted via: audiograbber 1.83.01
#
DISCID=ee0fa712
DTITLE=Various Artist - PNMC211009
DYEAR=2011
DGENRE=Country
TTITLE0=Toby Keith - Made In America
TTITLE1=Rascal Flatts and Natasha Bedingfield - Easy
TTITLE2=Sara Evans - My Heart Can't Tell You No
TTITLE3=Jake Owens - Barefoot Blue Jean Night
TTITLE4=Jacob Lyda - I'm Doing Alright
TTITLE5=Erica Nicole - Tell Me What You Think Of Us
TTITLE6=Darius Rucker - Together, Anything's Possible
TTITLE7=Bobby Dean - Rebound
TTITLE8=Leah Seawright - On The Backroads
TTITLE9=Toby Keith - Made In America w/ vocal
TTITLE10=Rascal Flatts and Natasha Bedingfield - Easy w/ vocal
TTITLE11=Sara Evans - My Heart Can't Tell You No w/ vocal
TTITLE12=Jake Owens - Barefoot Blue Jean Night w/ vocal
TTITLE13=Jacob Lyda - I'm Doing Alright w/ vocal
TTITLE14=Erica Nicole - Tell Me What You Think Of Us w/ vocal
TTITLE15=Darius Rucker - Together, Anything's Possible w/ vocal
TTITLE16=Bobby Dean - Rebound w/ vocal
TTITLE17=Leah Seawright - On The Backroads w/ vocal
EXTD=
EXTT0=
EXTT1=
EXTT2=
EXTT3=
EXTT4=
EXTT5=
EXTT6=
EXTT7=
EXTT8=
EXTT9=
EXTT10=
EXTT11=
EXTT12=
EXTT13=
EXTT14=
EXTT15=
EXTT16=
EXTT17=
PLAYORDER=
